<svg xmlns="http://www.w3.org/2000/svg" xmlns:xlink="http://www.w3.org/1999/xlink" version="1.1" x="0px" y="0px" viewBox="0 0 100 125" enable-background="new 0 0 100 100" xml:space="preserve"><path fill="#FFF" d="M89.575,72.203h-4.741v-4.736c0-0.552-0.447-1-1-1h-4.746v-4.746c0-0.552-0.447-1-1-1h-4.739v-4.745  c0-0.552-0.448-1-1-1h-4.746v-4.746c0-0.552-0.448-1-1-1h-4.741v-4.74c0-0.552-0.447-1-1-1h-4.746v-4.741c0-0.552-0.447-1-1-1  h-4.739v-3.746h4.739c0.553,0,1-0.448,1-1V21.518c0-0.552-0.447-1-1-1h-4.739v-4.741c0-0.552-0.448-1-1-1H37.889  c-0.552,0-1,0.448-1,1v4.741h-4.746h-5.74c-0.552,0-1,0.448-1,1v4.746H14.917c-0.552,0-1,0.448-1,1v4.74H9.171c-0.552,0-1,0.448-1,1  V44.49c0,0.552,0.448,1,1,1h4.746v4.74c0,0.552,0.448,1,1,1h4.741v4.746c0,0.552,0.448,1,1,1h4.746v4.745c0,0.553,0.448,1,1,1  h11.486c0.552,0,1-0.447,1-1v-4.745h4.741c0.552,0,1-0.448,1-1v-4.746h3.746v4.746c0,0.552,0.448,1,1,1h4.739v4.745  c0,0.553,0.448,1,1,1h4.746v4.746c0,0.553,0.448,1,1,1h4.741v4.736c0,0.553,0.448,1,1,1h4.746v4.746c0,0.552,0.448,1,1,1h4.739  v4.746c0,0.552,0.448,1,1,1h5.746h5.741c0.552,0,1-0.448,1-1v-5.746v-5.746C90.575,72.65,90.127,72.203,89.575,72.203z   M84.084,78.699v-5.246h5.241v5.246H84.084z M26.653,55.726v-5.496c0-0.138-0.112-0.25-0.25-0.25h-5.496v-5.49  c0-0.138-0.112-0.25-0.25-0.25h-5.491V33.253h11.236h5.74c0.138,0,0.25-0.112,0.25-0.25v-5.49h5.496c0.138,0,0.25-0.112,0.25-0.25  v-5.496h10.987v10.985H43.63c-0.138,0-0.25,0.112-0.25,0.25v5.496h-5.491c-0.138,0-0.25,0.112-0.25,0.25v5.741v11.236H26.653z   M31.894,27.513v5.24h-5.24v-5.24H31.894z M43.88,38.999h5.246v5.241H43.88V38.999z M43.88,38.499v-5.246h5.246v5.246H43.88z   M38.139,38.999h5.241v5.241h-5.241V38.999z M43.88,44.74h5.246v5.24H43.88V44.74z M49.626,44.74h5.239v5.24h-5.239V44.74z   M55.365,50.479h5.246v5.246h-5.246V50.479z M61.111,56.226h5.241v5.245h-5.241V56.226z M66.853,61.971h5.246v5.246h-5.246V61.971z   M72.599,67.717h5.239v5.236h-5.239V67.717z M78.338,73.453h5.246v5.246h-5.246V73.453z M78.338,72.953v-5.236h5.246v5.236H78.338z   M72.599,67.217v-5.246h5.239v5.246H72.599z M66.853,61.471v-5.245h5.246v5.245H66.853z M61.111,55.726v-5.246h5.241v5.246H61.111z   M55.365,49.979v-5.24h5.246v5.24H55.365z M49.626,44.24v-5.241h5.239v5.241H49.626z M49.626,21.768h5.239v10.985h-5.239V21.768z   M38.139,21.268v-5.241h10.987v5.241H38.139z M37.639,27.013h-5.246v-5.246h5.246V27.013z M31.894,27.013h-5.24v-5.246h5.24V27.013z   M26.153,32.753H15.167v-5.24h10.986V32.753z M14.667,44.24H9.421V33.253h5.246V44.24z M20.408,44.74v5.24h-5.241v-5.24H20.408z   M26.153,50.479v5.246h-5.246v-5.246H26.153z M37.639,56.226v5.245H26.653v-5.245H37.639z M38.139,44.74h5.241v5.49v5.496h-5.241  V44.74z M54.865,50.479v5.246h-5.239v-5.246H54.865z M60.611,56.226v5.245h-5.246v-5.245H60.611z M66.353,61.971v5.246h-5.241  v-5.246H66.353z M72.099,67.717v5.236h-5.246v-5.236H72.099z M77.838,73.453v5.246h-5.239v-5.246H77.838z M83.584,79.199v5.246  h-5.246v-5.246H83.584z M84.084,79.199h5.241v5.246h-5.241V79.199z"/><text x="0" y="115" fill="#000000" font-size="5px" font-weight="bold" font-family="'Helvetica Neue', Helvetica, Arial-Unicode, Arial, Sans-serif">Created by Lluisa Iborra</text><text x="0" y="120" fill="#000000" font-size="5px" font-weight="bold" font-family="'Helvetica Neue', Helvetica, Arial-Unicode, Arial, Sans-serif">from the Noun Project</text></svg>